<?xml version="1.0" encoding="UTF-8"?><svg id="a" xmlns="http://www.w3.org/2000/svg" viewBox="0 0 560 356"><defs><style>.b{fill:#f5c337;}.c{fill:#e62b1a;}.d{fill:#91dddd;}</style></defs><path class="c" d="M560,2V14c-.2,4.77-.4,9.55-.6,14.32-.61,48.45-1.22,96.9-1.84,145.56-100.86,30.54-201.38,60.97-302.42,91.56,4.73-82.92,9.41-164.86,14.1-247.12,4.9-.29,9.36-.56,13.82-.82,43.08-2.5,86.16-4.99,129.24-7.49,32.6-1.89,65.2-3.85,97.81-5.66,16.62-.92,33.26-1.58,49.89-2.36Z"/><path class="b" d="M1,302c.2-2.64,.55-5.28,.58-7.93,.91-81.62,1.8-163.24,2.64-244.85,.13-12.12,.02-24.24,.02-37.12,54.93,2.61,108.71,5.17,163.27,7.76-10.62,95.92-21.16,191.15-31.77,287.05-8.28,1.63-16.54,3.29-24.82,4.87-34.5,6.58-69.01,13.14-103.52,19.66-2.09,.4-4.26,.38-6.4,.56v-30Z"/><path class="d" d="M64,356c-1.93-8.93-3.85-17.86-5.91-27.39,1.82-.54,3.46-1.19,5.16-1.52,23.87-4.56,47.96-8.17,71.55-13.88,18.06-4.37,35.51-11.29,53.2-17.2,42.96-14.34,85.9-28.76,128.86-43.12,1.36-.45,2.8-.63,5.22-1.15-.95,25.03-1.88,49.34-2.83,74.44-6.39-.85-11.77-1.52-17.13-2.28-17.79-2.52-35.56-5.11-53.36-7.58-1.76-.24-3.66-.04-5.42,.35-36.75,8.03-73.48,16.13-110.21,24.2-21.13,4.64-42.26,9.26-63.38,13.92-1.27,.28-2.5,.8-3.74,1.2h-2Z"/><path class="b" d="M560,29c-.2-.22-.4-.44-.6-.66,.2-4.79,.4-9.56,.6-14.34v15Z"/><path class="b" d="M247.12,268.39c-14.08,4.89-27.73,9.64-42.44,14.75,8.64-88.01,17.22-175.34,25.87-263.42h32.92c-5.42,82.47-10.86,165.29-16.34,248.67Z"/><path class="d" d="M172.99,20.82h51.02c-4.46,47.13-8.83,93.37-13.27,140.31h-52.83c5.04-46.87,10.06-93.61,15.08-140.31Z"/><path class="c" d="M157.93,169.23h50.95c-3.51,38.78-7.02,77.46-10.54,116.41-18.31,5.56-36.4,11.06-55.39,16.83,5.02-44.62,9.96-88.62,14.98-133.24Z"/><path class="b" d="M330.36,248.25c15.56-4.77,30.78-9.44,46.74-14.34v98.37c-16.02-1.83-32.1-3.67-48.9-5.59,.72-26.07,1.43-51.93,2.17-78.45Z"/></svg>